<mxfile host="app.diagrams.net" modified="2023-11-07T07:02:53.958Z" agent="Mozilla/5.0 (Windows NT 10.0; Win64; x64) AppleWebKit/537.36 (KHTML, like Gecko) Chrome/118.0.0.0 Safari/537.36" version="22.0.8" etag="xKJ5Ycypplc0DPQVswNA" type="device" pages="6">
  <diagram name="总览" id="总览">
    <mxGraphModel dx="1221" dy="786" grid="0" gridSize="10" guides="1" tooltips="1" connect="1" arrows="1" fold="1" page="1" pageScale="1" pageWidth="827" pageHeight="1169" math="0" shadow="0">
      <root>
        <mxCell id="0" />
        <mxCell id="1" parent="0" />
        <mxCell id="tv5iXSpiIejumZKHIpF6-8" style="edgeStyle=orthogonalEdgeStyle;rounded=0;orthogonalLoop=1;jettySize=auto;html=1;exitX=0.25;exitY=1;exitDx=0;exitDy=0;entryX=0.5;entryY=0;entryDx=0;entryDy=0;dashed=1;dashPattern=1 1;" edge="1" parent="1" source="tv5iXSpiIejumZKHIpF6-1" target="tv5iXSpiIejumZKHIpF6-3">
          <mxGeometry relative="1" as="geometry" />
        </mxCell>
        <mxCell id="tv5iXSpiIejumZKHIpF6-9" style="edgeStyle=orthogonalEdgeStyle;rounded=0;orthogonalLoop=1;jettySize=auto;html=1;exitX=0.75;exitY=1;exitDx=0;exitDy=0;entryX=0.5;entryY=0;entryDx=0;entryDy=0;dashed=1;dashPattern=1 1;" edge="1" parent="1" source="tv5iXSpiIejumZKHIpF6-1" target="tv5iXSpiIejumZKHIpF6-2">
          <mxGeometry relative="1" as="geometry" />
        </mxCell>
        <mxCell id="tv5iXSpiIejumZKHIpF6-1" value="两种不同的方式执行地址转换" style="text;html=1;strokeColor=none;fillColor=none;align=center;verticalAlign=middle;whiteSpace=wrap;rounded=0;labelBorderColor=default;" vertex="1" parent="1">
          <mxGeometry x="161" y="81" width="90" height="27" as="geometry" />
        </mxCell>
        <mxCell id="tv5iXSpiIejumZKHIpF6-2" value="保护模式" style="text;html=1;strokeColor=none;fillColor=none;align=center;verticalAlign=middle;whiteSpace=wrap;rounded=0;" vertex="1" parent="1">
          <mxGeometry x="261" y="183" width="60" height="30" as="geometry" />
        </mxCell>
        <mxCell id="tv5iXSpiIejumZKHIpF6-3" value="实模式" style="text;html=1;strokeColor=none;fillColor=none;align=center;verticalAlign=middle;whiteSpace=wrap;rounded=0;" vertex="1" parent="1">
          <mxGeometry x="90" y="183" width="60" height="30" as="geometry" />
        </mxCell>
      </root>
    </mxGraphModel>
  </diagram>
  <diagram name="段选择器和段寄存器 Segment Selectors and Segmentation Registers" id="段选择器和段寄存器 Segment Selectors and Segmentation Registers">
    <mxGraphModel dx="1221" dy="786" grid="0" gridSize="10" guides="1" tooltips="1" connect="1" arrows="1" fold="1" page="1" pageScale="1" pageWidth="827" pageHeight="1169" math="0" shadow="0">
      <root>
        <mxCell id="0" />
        <mxCell id="1" parent="0" />
        <mxCell id="KNQ26-srj7X2-f6I845y-35" style="edgeStyle=orthogonalEdgeStyle;rounded=0;orthogonalLoop=1;jettySize=auto;html=1;entryX=0.25;entryY=0;entryDx=0;entryDy=0;dashed=1;dashPattern=1 1;" edge="1" parent="1" source="KNQ26-srj7X2-f6I845y-1" target="KNQ26-srj7X2-f6I845y-3">
          <mxGeometry relative="1" as="geometry" />
        </mxCell>
        <mxCell id="KNQ26-srj7X2-f6I845y-1" value="逻辑地址由两部分组成:段标识符和指定段内相对地址的偏移量。" style="text;whiteSpace=wrap;html=1;" vertex="1" parent="1">
          <mxGeometry x="261" y="205" width="367" height="29" as="geometry" />
        </mxCell>
        <mxCell id="KNQ26-srj7X2-f6I845y-13" style="edgeStyle=orthogonalEdgeStyle;rounded=0;orthogonalLoop=1;jettySize=auto;html=1;entryX=0.5;entryY=0;entryDx=0;entryDy=0;dashed=1;dashPattern=1 1;" edge="1" parent="1" source="KNQ26-srj7X2-f6I845y-4" target="KNQ26-srj7X2-f6I845y-1">
          <mxGeometry relative="1" as="geometry" />
        </mxCell>
        <mxCell id="KNQ26-srj7X2-f6I845y-4" value="逻辑地址" style="rounded=0;whiteSpace=wrap;html=1;dashed=1;" vertex="1" parent="1">
          <mxGeometry x="85" y="111" width="720" height="60" as="geometry" />
        </mxCell>
        <mxCell id="KNQ26-srj7X2-f6I845y-6" value="" style="group;dashed=1;" vertex="1" connectable="0" parent="1">
          <mxGeometry x="81" y="264" width="721" height="60" as="geometry" />
        </mxCell>
        <mxCell id="KNQ26-srj7X2-f6I845y-2" value="段标识符（段选择符）16位" style="rounded=0;whiteSpace=wrap;html=1;movable=1;resizable=1;rotatable=1;deletable=1;editable=1;locked=0;connectable=1;dashed=1;" vertex="1" parent="KNQ26-srj7X2-f6I845y-6">
          <mxGeometry width="244" height="60" as="geometry" />
        </mxCell>
        <mxCell id="KNQ26-srj7X2-f6I845y-3" value="偏移量 32位" style="rounded=0;whiteSpace=wrap;html=1;movable=1;resizable=1;rotatable=1;deletable=1;editable=1;locked=0;connectable=1;dashed=1;" vertex="1" parent="KNQ26-srj7X2-f6I845y-6">
          <mxGeometry x="244" width="477" height="60" as="geometry" />
        </mxCell>
        <mxCell id="KNQ26-srj7X2-f6I845y-31" value="" style="group" vertex="1" connectable="0" parent="1">
          <mxGeometry x="81" y="378" width="237" height="60" as="geometry" />
        </mxCell>
        <mxCell id="KNQ26-srj7X2-f6I845y-25" value="索引号 14位" style="rounded=0;whiteSpace=wrap;html=1;movable=1;resizable=1;rotatable=1;deletable=1;editable=1;locked=0;connectable=1;dashed=1;container=0;" vertex="1" parent="KNQ26-srj7X2-f6I845y-31">
          <mxGeometry width="181" height="60" as="geometry" />
        </mxCell>
        <mxCell id="KNQ26-srj7X2-f6I845y-27" value="TI&lt;br&gt;1位" style="rounded=0;whiteSpace=wrap;html=1;movable=1;resizable=1;rotatable=1;deletable=1;editable=1;locked=0;connectable=1;dashed=1;container=0;" vertex="1" parent="KNQ26-srj7X2-f6I845y-31">
          <mxGeometry x="181" width="28" height="60" as="geometry" />
        </mxCell>
        <mxCell id="KNQ26-srj7X2-f6I845y-28" value="RPL&lt;br&gt;1位" style="rounded=0;whiteSpace=wrap;html=1;movable=1;resizable=1;rotatable=1;deletable=1;editable=1;locked=0;connectable=1;dashed=1;container=0;" vertex="1" parent="KNQ26-srj7X2-f6I845y-31">
          <mxGeometry x="209" width="28" height="60" as="geometry" />
        </mxCell>
        <mxCell id="KNQ26-srj7X2-f6I845y-30" style="edgeStyle=orthogonalEdgeStyle;rounded=0;orthogonalLoop=1;jettySize=auto;html=1;entryX=0.678;entryY=0.039;entryDx=0;entryDy=0;entryPerimeter=0;dashed=1;dashPattern=1 1;" edge="1" parent="1" source="KNQ26-srj7X2-f6I845y-2" target="KNQ26-srj7X2-f6I845y-25">
          <mxGeometry relative="1" as="geometry">
            <mxPoint x="203" y="386.66668701171875" as="targetPoint" />
          </mxGeometry>
        </mxCell>
        <mxCell id="KNQ26-srj7X2-f6I845y-33" style="edgeStyle=orthogonalEdgeStyle;rounded=0;orthogonalLoop=1;jettySize=auto;html=1;entryX=0.5;entryY=0;entryDx=0;entryDy=0;dashed=1;dashPattern=1 1;" edge="1" parent="1" source="KNQ26-srj7X2-f6I845y-25" target="KNQ26-srj7X2-f6I845y-17">
          <mxGeometry relative="1" as="geometry" />
        </mxCell>
        <mxCell id="KNQ26-srj7X2-f6I845y-34" value="" style="group" vertex="1" connectable="0" parent="1">
          <mxGeometry x="50" y="486" width="244" height="143" as="geometry" />
        </mxCell>
        <mxCell id="KNQ26-srj7X2-f6I845y-17" value="为了方便快速检索段选择器，处理器提供了段寄存器，其唯一目的是保存段选择符。" style="text;whiteSpace=wrap;html=1;container=0;" vertex="1" parent="KNQ26-srj7X2-f6I845y-34">
          <mxGeometry x="3" width="238" height="41" as="geometry" />
        </mxCell>
        <mxCell id="KNQ26-srj7X2-f6I845y-20" value="段寄存器" style="rounded=0;whiteSpace=wrap;html=1;movable=1;resizable=1;rotatable=1;deletable=1;editable=1;locked=0;connectable=1;container=0;" vertex="1" parent="KNQ26-srj7X2-f6I845y-34">
          <mxGeometry y="83" width="244" height="60" as="geometry" />
        </mxCell>
        <mxCell id="KNQ26-srj7X2-f6I845y-22" style="edgeStyle=orthogonalEdgeStyle;rounded=0;orthogonalLoop=1;jettySize=auto;html=1;entryX=0.5;entryY=0;entryDx=0;entryDy=0;dashed=1;dashPattern=1 1;" edge="1" parent="KNQ26-srj7X2-f6I845y-34" source="KNQ26-srj7X2-f6I845y-17" target="KNQ26-srj7X2-f6I845y-20">
          <mxGeometry relative="1" as="geometry" />
        </mxCell>
      </root>
    </mxGraphModel>
  </diagram>
  <diagram name="段描述符 Segment Descriptors" id="段描述符 Segment Descriptors">
    <mxGraphModel dx="1436" dy="925" grid="0" gridSize="10" guides="1" tooltips="1" connect="1" arrows="1" fold="1" page="1" pageScale="1" pageWidth="827" pageHeight="1169" math="0" shadow="0">
      <root>
        <mxCell id="0" />
        <mxCell id="1" parent="0" />
        <mxCell id="fHKCDDGtWjm0DebnSbes-6" style="edgeStyle=orthogonalEdgeStyle;rounded=0;orthogonalLoop=1;jettySize=auto;html=1;entryX=0.5;entryY=0;entryDx=0;entryDy=0;dashed=1;dashPattern=1 1;" edge="1" parent="1" source="EfzD0NuxS5N4ZFLKiu7Y-2" target="fHKCDDGtWjm0DebnSbes-3">
          <mxGeometry relative="1" as="geometry" />
        </mxCell>
        <mxCell id="fHKCDDGtWjm0DebnSbes-12" style="edgeStyle=orthogonalEdgeStyle;rounded=0;orthogonalLoop=1;jettySize=auto;html=1;exitX=0.5;exitY=1;exitDx=0;exitDy=0;entryX=0.5;entryY=0;entryDx=0;entryDy=0;dashed=1;dashPattern=1 1;" edge="1" parent="1" source="EfzD0NuxS5N4ZFLKiu7Y-2" target="fHKCDDGtWjm0DebnSbes-4">
          <mxGeometry relative="1" as="geometry" />
        </mxCell>
        <mxCell id="fHKCDDGtWjm0DebnSbes-13" style="edgeStyle=orthogonalEdgeStyle;rounded=0;orthogonalLoop=1;jettySize=auto;html=1;exitX=0.5;exitY=1;exitDx=0;exitDy=0;dashed=1;dashPattern=1 1;" edge="1" parent="1" source="EfzD0NuxS5N4ZFLKiu7Y-2" target="fHKCDDGtWjm0DebnSbes-5">
          <mxGeometry relative="1" as="geometry" />
        </mxCell>
        <mxCell id="EfzD0NuxS5N4ZFLKiu7Y-2" value="每个段由一个8字节的段描述符表示，该段描述符描述了段的特征" style="text;html=1;strokeColor=none;fillColor=none;align=center;verticalAlign=middle;whiteSpace=wrap;rounded=0;" vertex="1" parent="1">
          <mxGeometry x="70" y="304" width="187" height="27" as="geometry" />
        </mxCell>
        <mxCell id="fHKCDDGtWjm0DebnSbes-1" style="edgeStyle=orthogonalEdgeStyle;rounded=0;orthogonalLoop=1;jettySize=auto;html=1;entryX=0.5;entryY=0;entryDx=0;entryDy=0;dashed=1;dashPattern=1 1;" edge="1" parent="1" source="EfzD0NuxS5N4ZFLKiu7Y-3" target="EfzD0NuxS5N4ZFLKiu7Y-2">
          <mxGeometry relative="1" as="geometry" />
        </mxCell>
        <mxCell id="EfzD0NuxS5N4ZFLKiu7Y-3" value="段描述符" style="rounded=0;whiteSpace=wrap;html=1;dashed=1;" vertex="1" parent="1">
          <mxGeometry x="103.5" y="191" width="120" height="60" as="geometry" />
        </mxCell>
        <mxCell id="fHKCDDGtWjm0DebnSbes-195" style="edgeStyle=orthogonalEdgeStyle;rounded=0;orthogonalLoop=1;jettySize=auto;html=1;entryX=0.25;entryY=0;entryDx=0;entryDy=0;fillColor=#f5f5f5;strokeColor=#666666;exitX=0.5;exitY=1;exitDx=0;exitDy=0;dashed=1;dashPattern=1 1;" edge="1" parent="1" source="fHKCDDGtWjm0DebnSbes-3" target="fHKCDDGtWjm0DebnSbes-81">
          <mxGeometry relative="1" as="geometry">
            <mxPoint x="129" y="456" as="sourcePoint" />
          </mxGeometry>
        </mxCell>
        <mxCell id="fHKCDDGtWjm0DebnSbes-3" value="代码段描述符" style="text;html=1;strokeColor=#666666;fillColor=#f5f5f5;align=center;verticalAlign=middle;whiteSpace=wrap;rounded=0;fontColor=#333333;" vertex="1" parent="1">
          <mxGeometry x="74" y="429" width="78" height="24" as="geometry" />
        </mxCell>
        <mxCell id="fHKCDDGtWjm0DebnSbes-4" value="数据段描述符" style="text;html=1;strokeColor=#6c8ebf;fillColor=#dae8fc;align=center;verticalAlign=middle;whiteSpace=wrap;rounded=0;" vertex="1" parent="1">
          <mxGeometry x="197" y="429" width="78" height="24" as="geometry" />
        </mxCell>
        <mxCell id="fHKCDDGtWjm0DebnSbes-5" value="任务状态段描述符" style="text;html=1;strokeColor=#82b366;fillColor=#d5e8d4;align=center;verticalAlign=middle;whiteSpace=wrap;rounded=0;" vertex="1" parent="1">
          <mxGeometry x="305" y="430" width="99" height="24" as="geometry" />
        </mxCell>
        <mxCell id="fHKCDDGtWjm0DebnSbes-101" value="" style="group;fillColor=#f5f5f5;fontColor=#333333;strokeColor=#666666;" vertex="1" connectable="0" parent="1">
          <mxGeometry x="74" y="519" width="1260" height="60" as="geometry" />
        </mxCell>
        <mxCell id="fHKCDDGtWjm0DebnSbes-81" value="BASE 8位" style="rounded=0;whiteSpace=wrap;html=1;fillColor=#f5f5f5;fontColor=#333333;strokeColor=#666666;" vertex="1" parent="fHKCDDGtWjm0DebnSbes-101">
          <mxGeometry width="160" height="60" as="geometry" />
        </mxCell>
        <mxCell id="fHKCDDGtWjm0DebnSbes-82" value="G &lt;br&gt;1位" style="rounded=0;whiteSpace=wrap;html=1;fillColor=#f5f5f5;fontColor=#333333;strokeColor=#666666;" vertex="1" parent="fHKCDDGtWjm0DebnSbes-101">
          <mxGeometry x="160" width="20" height="60" as="geometry" />
        </mxCell>
        <mxCell id="fHKCDDGtWjm0DebnSbes-83" value="B&lt;br&gt;1位" style="rounded=0;whiteSpace=wrap;html=1;fillColor=#f5f5f5;fontColor=#333333;strokeColor=#666666;" vertex="1" parent="fHKCDDGtWjm0DebnSbes-101">
          <mxGeometry x="179.5" width="20" height="60" as="geometry" />
        </mxCell>
        <mxCell id="fHKCDDGtWjm0DebnSbes-84" value="0" style="rounded=0;whiteSpace=wrap;html=1;fillColor=#f5f5f5;fontColor=#333333;strokeColor=#666666;" vertex="1" parent="fHKCDDGtWjm0DebnSbes-101">
          <mxGeometry x="199.5" width="20" height="60" as="geometry" />
        </mxCell>
        <mxCell id="fHKCDDGtWjm0DebnSbes-85" value="A&lt;br style=&quot;font-size: 12px;&quot;&gt;V&lt;br style=&quot;font-size: 12px;&quot;&gt;L" style="rounded=0;whiteSpace=wrap;html=1;fontSize=12;fillColor=#f5f5f5;fontColor=#333333;strokeColor=#666666;" vertex="1" parent="fHKCDDGtWjm0DebnSbes-101">
          <mxGeometry x="219.5" width="20" height="60" as="geometry" />
        </mxCell>
        <mxCell id="fHKCDDGtWjm0DebnSbes-86" value="LIMIT 4位" style="rounded=0;whiteSpace=wrap;html=1;fillColor=#f5f5f5;fontColor=#333333;strokeColor=#666666;" vertex="1" parent="fHKCDDGtWjm0DebnSbes-101">
          <mxGeometry x="239.5" width="80" height="60" as="geometry" />
        </mxCell>
        <mxCell id="fHKCDDGtWjm0DebnSbes-87" value="1" style="rounded=0;whiteSpace=wrap;html=1;fontSize=12;fillColor=#f5f5f5;fontColor=#333333;strokeColor=#666666;" vertex="1" parent="fHKCDDGtWjm0DebnSbes-101">
          <mxGeometry x="319.5" width="20" height="60" as="geometry" />
        </mxCell>
        <mxCell id="fHKCDDGtWjm0DebnSbes-88" value="D&lt;br&gt;P&lt;br&gt;L" style="rounded=0;whiteSpace=wrap;html=1;fontSize=12;fillColor=#f5f5f5;fontColor=#333333;strokeColor=#666666;" vertex="1" parent="fHKCDDGtWjm0DebnSbes-101">
          <mxGeometry x="340" width="20" height="60" as="geometry" />
        </mxCell>
        <mxCell id="fHKCDDGtWjm0DebnSbes-89" value="S&lt;br&gt;=&lt;br&gt;1" style="rounded=0;whiteSpace=wrap;html=1;fontSize=12;fillColor=#f5f5f5;fontColor=#333333;strokeColor=#666666;" vertex="1" parent="fHKCDDGtWjm0DebnSbes-101">
          <mxGeometry x="360" width="20" height="60" as="geometry" />
        </mxCell>
        <mxCell id="fHKCDDGtWjm0DebnSbes-90" value="TYPE 4位" style="rounded=0;whiteSpace=wrap;html=1;fontSize=12;fillColor=#f5f5f5;fontColor=#333333;strokeColor=#666666;" vertex="1" parent="fHKCDDGtWjm0DebnSbes-101">
          <mxGeometry x="380" width="80" height="60" as="geometry" />
        </mxCell>
        <mxCell id="fHKCDDGtWjm0DebnSbes-91" value="BASE 24位" style="rounded=0;whiteSpace=wrap;html=1;fontSize=12;fillColor=#f5f5f5;fontColor=#333333;strokeColor=#666666;" vertex="1" parent="fHKCDDGtWjm0DebnSbes-101">
          <mxGeometry x="460" width="480" height="60" as="geometry" />
        </mxCell>
        <mxCell id="fHKCDDGtWjm0DebnSbes-100" value="LIMIT 24位" style="rounded=0;whiteSpace=wrap;html=1;fontSize=12;fillColor=#f5f5f5;fontColor=#333333;strokeColor=#666666;" vertex="1" parent="fHKCDDGtWjm0DebnSbes-101">
          <mxGeometry x="940" width="320" height="60" as="geometry" />
        </mxCell>
        <mxCell id="fHKCDDGtWjm0DebnSbes-141" value="" style="group;fillColor=#dae8fc;strokeColor=#6c8ebf;" vertex="1" connectable="0" parent="1">
          <mxGeometry x="76" y="619" width="1260" height="60" as="geometry" />
        </mxCell>
        <mxCell id="fHKCDDGtWjm0DebnSbes-142" value="BASE 8位" style="rounded=0;whiteSpace=wrap;html=1;fillColor=#dae8fc;strokeColor=#6c8ebf;" vertex="1" parent="fHKCDDGtWjm0DebnSbes-141">
          <mxGeometry width="160" height="60" as="geometry" />
        </mxCell>
        <mxCell id="fHKCDDGtWjm0DebnSbes-143" value="G &lt;br&gt;1位" style="rounded=0;whiteSpace=wrap;html=1;fillColor=#dae8fc;strokeColor=#6c8ebf;" vertex="1" parent="fHKCDDGtWjm0DebnSbes-141">
          <mxGeometry x="160" width="20" height="60" as="geometry" />
        </mxCell>
        <mxCell id="fHKCDDGtWjm0DebnSbes-144" value="D&lt;br&gt;1位" style="rounded=0;whiteSpace=wrap;html=1;fillColor=#dae8fc;strokeColor=#6c8ebf;" vertex="1" parent="fHKCDDGtWjm0DebnSbes-141">
          <mxGeometry x="179.5" width="20" height="60" as="geometry" />
        </mxCell>
        <mxCell id="fHKCDDGtWjm0DebnSbes-145" value="0" style="rounded=0;whiteSpace=wrap;html=1;fillColor=#dae8fc;strokeColor=#6c8ebf;" vertex="1" parent="fHKCDDGtWjm0DebnSbes-141">
          <mxGeometry x="199.5" width="20" height="60" as="geometry" />
        </mxCell>
        <mxCell id="fHKCDDGtWjm0DebnSbes-146" value="A&lt;br style=&quot;font-size: 12px;&quot;&gt;V&lt;br style=&quot;font-size: 12px;&quot;&gt;L" style="rounded=0;whiteSpace=wrap;html=1;fontSize=12;fillColor=#dae8fc;strokeColor=#6c8ebf;" vertex="1" parent="fHKCDDGtWjm0DebnSbes-141">
          <mxGeometry x="219.5" width="20" height="60" as="geometry" />
        </mxCell>
        <mxCell id="fHKCDDGtWjm0DebnSbes-147" value="LIMIT 4位" style="rounded=0;whiteSpace=wrap;html=1;fillColor=#dae8fc;strokeColor=#6c8ebf;" vertex="1" parent="fHKCDDGtWjm0DebnSbes-141">
          <mxGeometry x="239.5" width="80" height="60" as="geometry" />
        </mxCell>
        <mxCell id="fHKCDDGtWjm0DebnSbes-148" value="1" style="rounded=0;whiteSpace=wrap;html=1;fontSize=12;fillColor=#dae8fc;strokeColor=#6c8ebf;" vertex="1" parent="fHKCDDGtWjm0DebnSbes-141">
          <mxGeometry x="319.5" width="20" height="60" as="geometry" />
        </mxCell>
        <mxCell id="fHKCDDGtWjm0DebnSbes-149" value="D&lt;br&gt;P&lt;br&gt;L" style="rounded=0;whiteSpace=wrap;html=1;fontSize=12;fillColor=#dae8fc;strokeColor=#6c8ebf;" vertex="1" parent="fHKCDDGtWjm0DebnSbes-141">
          <mxGeometry x="340" width="20" height="60" as="geometry" />
        </mxCell>
        <mxCell id="fHKCDDGtWjm0DebnSbes-150" value="S&lt;br&gt;=&lt;br&gt;1" style="rounded=0;whiteSpace=wrap;html=1;fontSize=12;fillColor=#dae8fc;strokeColor=#6c8ebf;" vertex="1" parent="fHKCDDGtWjm0DebnSbes-141">
          <mxGeometry x="360" width="20" height="60" as="geometry" />
        </mxCell>
        <mxCell id="fHKCDDGtWjm0DebnSbes-151" value="TYPE 4位" style="rounded=0;whiteSpace=wrap;html=1;fontSize=12;fillColor=#dae8fc;strokeColor=#6c8ebf;" vertex="1" parent="fHKCDDGtWjm0DebnSbes-141">
          <mxGeometry x="380" width="80" height="60" as="geometry" />
        </mxCell>
        <mxCell id="fHKCDDGtWjm0DebnSbes-152" value="BASE 24位" style="rounded=0;whiteSpace=wrap;html=1;fontSize=12;fillColor=#dae8fc;strokeColor=#6c8ebf;" vertex="1" parent="fHKCDDGtWjm0DebnSbes-141">
          <mxGeometry x="460" width="480" height="60" as="geometry" />
        </mxCell>
        <mxCell id="fHKCDDGtWjm0DebnSbes-153" value="LIMIT 24位" style="rounded=0;whiteSpace=wrap;html=1;fontSize=12;fillColor=#dae8fc;strokeColor=#6c8ebf;" vertex="1" parent="fHKCDDGtWjm0DebnSbes-141">
          <mxGeometry x="940" width="320" height="60" as="geometry" />
        </mxCell>
        <mxCell id="fHKCDDGtWjm0DebnSbes-154" value="" style="group;fillColor=#d5e8d4;strokeColor=#82b366;" vertex="1" connectable="0" parent="1">
          <mxGeometry x="76" y="716" width="1260" height="60" as="geometry" />
        </mxCell>
        <mxCell id="fHKCDDGtWjm0DebnSbes-155" value="BASE 8位" style="rounded=0;whiteSpace=wrap;html=1;fillColor=#d5e8d4;strokeColor=#82b366;" vertex="1" parent="fHKCDDGtWjm0DebnSbes-154">
          <mxGeometry width="160" height="60" as="geometry" />
        </mxCell>
        <mxCell id="fHKCDDGtWjm0DebnSbes-156" value="G &lt;br&gt;1位" style="rounded=0;whiteSpace=wrap;html=1;fillColor=#d5e8d4;strokeColor=#82b366;" vertex="1" parent="fHKCDDGtWjm0DebnSbes-154">
          <mxGeometry x="160" width="20" height="60" as="geometry" />
        </mxCell>
        <mxCell id="fHKCDDGtWjm0DebnSbes-157" value="" style="rounded=0;whiteSpace=wrap;html=1;fillColor=#d5e8d4;strokeColor=#82b366;" vertex="1" parent="fHKCDDGtWjm0DebnSbes-154">
          <mxGeometry x="179.5" width="20" height="60" as="geometry" />
        </mxCell>
        <mxCell id="fHKCDDGtWjm0DebnSbes-158" value="0" style="rounded=0;whiteSpace=wrap;html=1;fillColor=#d5e8d4;strokeColor=#82b366;" vertex="1" parent="fHKCDDGtWjm0DebnSbes-154">
          <mxGeometry x="199.5" width="20" height="60" as="geometry" />
        </mxCell>
        <mxCell id="fHKCDDGtWjm0DebnSbes-159" value="" style="rounded=0;whiteSpace=wrap;html=1;fontSize=12;fillColor=#d5e8d4;strokeColor=#82b366;" vertex="1" parent="fHKCDDGtWjm0DebnSbes-154">
          <mxGeometry x="219.5" width="20" height="60" as="geometry" />
        </mxCell>
        <mxCell id="fHKCDDGtWjm0DebnSbes-160" value="LIMIT 4位" style="rounded=0;whiteSpace=wrap;html=1;fillColor=#d5e8d4;strokeColor=#82b366;" vertex="1" parent="fHKCDDGtWjm0DebnSbes-154">
          <mxGeometry x="239.5" width="80" height="60" as="geometry" />
        </mxCell>
        <mxCell id="fHKCDDGtWjm0DebnSbes-161" value="1" style="rounded=0;whiteSpace=wrap;html=1;fontSize=12;fillColor=#d5e8d4;strokeColor=#82b366;" vertex="1" parent="fHKCDDGtWjm0DebnSbes-154">
          <mxGeometry x="319.5" width="20" height="60" as="geometry" />
        </mxCell>
        <mxCell id="fHKCDDGtWjm0DebnSbes-162" value="D&lt;br&gt;P&lt;br&gt;L" style="rounded=0;whiteSpace=wrap;html=1;fontSize=12;fillColor=#d5e8d4;strokeColor=#82b366;" vertex="1" parent="fHKCDDGtWjm0DebnSbes-154">
          <mxGeometry x="340" width="20" height="60" as="geometry" />
        </mxCell>
        <mxCell id="fHKCDDGtWjm0DebnSbes-163" value="S&lt;br&gt;=&lt;br&gt;1" style="rounded=0;whiteSpace=wrap;html=1;fontSize=12;fillColor=#d5e8d4;strokeColor=#82b366;" vertex="1" parent="fHKCDDGtWjm0DebnSbes-154">
          <mxGeometry x="360" width="20" height="60" as="geometry" />
        </mxCell>
        <mxCell id="fHKCDDGtWjm0DebnSbes-164" value="TYPE 4位" style="rounded=0;whiteSpace=wrap;html=1;fontSize=12;fillColor=#d5e8d4;strokeColor=#82b366;" vertex="1" parent="fHKCDDGtWjm0DebnSbes-154">
          <mxGeometry x="380" width="80" height="60" as="geometry" />
        </mxCell>
        <mxCell id="fHKCDDGtWjm0DebnSbes-165" value="BASE 24位" style="rounded=0;whiteSpace=wrap;html=1;fontSize=12;fillColor=#d5e8d4;strokeColor=#82b366;" vertex="1" parent="fHKCDDGtWjm0DebnSbes-154">
          <mxGeometry x="460" width="480" height="60" as="geometry" />
        </mxCell>
        <mxCell id="fHKCDDGtWjm0DebnSbes-166" value="LIMIT 24位" style="rounded=0;whiteSpace=wrap;html=1;fontSize=12;fillColor=#d5e8d4;strokeColor=#82b366;" vertex="1" parent="fHKCDDGtWjm0DebnSbes-154">
          <mxGeometry x="940" width="320" height="60" as="geometry" />
        </mxCell>
        <mxCell id="fHKCDDGtWjm0DebnSbes-196" style="edgeStyle=orthogonalEdgeStyle;rounded=0;orthogonalLoop=1;jettySize=auto;html=1;entryX=1;entryY=0;entryDx=0;entryDy=0;fillColor=#dae8fc;strokeColor=#6c8ebf;exitX=0.5;exitY=1;exitDx=0;exitDy=0;dashed=1;dashPattern=1 1;" edge="1" parent="1" source="fHKCDDGtWjm0DebnSbes-4" target="fHKCDDGtWjm0DebnSbes-142">
          <mxGeometry relative="1" as="geometry">
            <mxPoint x="241" y="435" as="sourcePoint" />
          </mxGeometry>
        </mxCell>
        <mxCell id="fHKCDDGtWjm0DebnSbes-197" style="edgeStyle=orthogonalEdgeStyle;rounded=0;orthogonalLoop=1;jettySize=auto;html=1;entryX=0.5;entryY=0;entryDx=0;entryDy=0;fillColor=#d5e8d4;strokeColor=#82b366;exitX=0.5;exitY=1;exitDx=0;exitDy=0;dashed=1;dashPattern=1 1;" edge="1" parent="1" source="fHKCDDGtWjm0DebnSbes-5" target="fHKCDDGtWjm0DebnSbes-160">
          <mxGeometry relative="1" as="geometry">
            <mxPoint x="376" y="438" as="sourcePoint" />
          </mxGeometry>
        </mxCell>
      </root>
    </mxGraphModel>
  </diagram>
  <diagram name="快速访问段描述符 Fast Access to Segment Descriptors" id="快速访问段描述符 Fast Access to Segment Descriptors">
    <mxGraphModel dx="1221" dy="786" grid="0" gridSize="10" guides="1" tooltips="1" connect="1" arrows="1" fold="1" page="1" pageScale="1" pageWidth="827" pageHeight="1169" math="0" shadow="0">
      <root>
        <mxCell id="0" />
        <mxCell id="1" parent="0" />
      </root>
    </mxGraphModel>
  </diagram>
  <diagram name="分段单元 Segmentation Unit" id="分段单元 Segmentation Unit">
    <mxGraphModel grid="0">
      <root>
        <mxCell id="0" />
        <mxCell id="1" parent="0" />
      </root>
    </mxGraphModel>
  </diagram>
  <diagram name="补充" id="补充">
    <mxGraphModel grid="0">
      <root>
        <mxCell id="0" />
        <mxCell id="1" parent="0" />
      </root>
    </mxGraphModel>
  </diagram>
</mxfile>
